<?xml version="1.0" encoding="UTF-8" standalone="no"?>
<svg width="400" height="600" xmlns="http://www.w3.org/2000/svg">
  <!-- Background -->
  <rect width="400" height="600" fill="#ffffff" />
  
  <!-- Header with accent sidebar -->
  <rect x="0" y="0" width="100" height="600" fill="#059669" />
  
  <!-- Name and Title -->
  <rect x="120" y="40" width="180" height="25" fill="#059669" rx="2" />
  <rect x="120" y="75" width="240" height="10" fill="#64748b" rx="2" />
  <rect x="120" y="95" width="200" height="10" fill="#64748b" rx="2" />
  
  <!-- Contact Info in Sidebar -->
  <rect x="20" y="150" width="60" height="15" fill="#A7F3D0" rx="2" />
  <rect x="20" y="175" width="50" height="8" fill="#ffffff" rx="2" />
  <rect x="20" y="190" width="55" height="8" fill="#ffffff" rx="2" />
  <rect x="20" y="205" width="40" height="8" fill="#ffffff" rx="2" />
  
  <!-- Skills in Sidebar -->
  <rect x="20" y="250" width="60" height="15" fill="#A7F3D0" rx="2" />
  <rect x="20" y="275" width="60" height="20" fill="#059669" rx="10" opacity="0.8" />
  <rect x="20" y="305" width="60" height="20" fill="#059669" rx="10" opacity="0.8" />
  <rect x="20" y="335" width="60" height="20" fill="#059669" rx="10" opacity="0.8" />
  <rect x="20" y="365" width="60" height="20" fill="#059669" rx="10" opacity="0.8" />
  
  <!-- Education in Sidebar -->
  <rect x="20" y="410" width="60" height="15" fill="#A7F3D0" rx="2" />
  <rect x="20" y="435" width="60" height="8" fill="#ffffff" rx="2" />
  <rect x="20" y="450" width="50" height="8" fill="#ffffff" rx="2" />
  <rect x="20" y="475" width="60" height="8" fill="#ffffff" rx="2" />
  <rect x="20" y="490" width="50" height="8" fill="#ffffff" rx="2" />
  
  <!-- Main Content -->
  <rect x="120" y="140" width="260" height="440" fill="#ffffff" />
  
  <!-- Experience Section -->
  <rect x="120" y="150" width="150" height="20" fill="#059669" rx="2" />
  
  <!-- Job 1 -->
  <rect x="120" y="180" width="260" height="100" fill="#ffffff" stroke="#ecfdf5" stroke-width="2" rx="5" />
  <rect x="140" y="190" width="120" height="10" fill="#059669" rx="2" />
  <rect x="140" y="210" width="100" height="8" fill="#64748b" rx="2" />
  <rect x="140" y="225" width="220" height="8" fill="#94a3b8" rx="2" />
  <rect x="140" y="240" width="210" height="8" fill="#94a3b8" rx="2" />
  <rect x="140" y="255" width="200" height="8" fill="#94a3b8" rx="2" />
  
  <!-- Job 2 -->
  <rect x="120" y="290" width="260" height="100" fill="#ffffff" stroke="#ecfdf5" stroke-width="2" rx="5" />
  <rect x="140" y="300" width="120" height="10" fill="#059669" rx="2" />
  <rect x="140" y="320" width="100" height="8" fill="#64748b" rx="2" />
  <rect x="140" y="335" width="220" height="8" fill="#94a3b8" rx="2" />
  <rect x="140" y="350" width="210" height="8" fill="#94a3b8" rx="2" />
  <rect x="140" y="365" width="200" height="8" fill="#94a3b8" rx="2" />
  
  <!-- Projects Section -->
  <rect x="120" y="410" width="100" height="20" fill="#059669" rx="2" />
  
  <!-- Project 1 -->
  <rect x="120" y="440" width="260" height="60" fill="#ffffff" stroke="#ecfdf5" stroke-width="2" rx="5" />
  <rect x="140" y="450" width="100" height="10" fill="#64748b" rx="2" />
  <rect x="140" y="470" width="220" height="8" fill="#94a3b8" rx="2" />
  <rect x="140" y="485" width="210" height="8" fill="#94a3b8" rx="2" />
  
  <!-- Project 2 -->
  <rect x="120" y="510" width="260" height="60" fill="#ffffff" stroke="#ecfdf5" stroke-width="2" rx="5" />
  <rect x="140" y="520" width="100" height="10" fill="#64748b" rx="2" />
  <rect x="140" y="540" width="220" height="8" fill="#94a3b8" rx="2" />
  <rect x="140" y="555" width="210" height="8" fill="#94a3b8" rx="2" />
</svg>
