<?xml version="1.0" encoding="UTF-8" standalone="no"?>
<svg width="400" height="600" xmlns="http://www.w3.org/2000/svg">
  <!-- Background -->
  <rect width="400" height="600" fill="#ffffff" />
  
  <!-- Header with accent color -->
  <rect x="0" y="0" width="400" height="120" fill="#EC4899" />
  <rect x="40" y="40" width="200" height="25" fill="#ffffff" rx="2" />
  <rect x="40" y="75" width="150" height="10" fill="#F9A8D4" rx="2" />
  
  <!-- Contact Icons -->
  <circle cx="320" cy="40" r="15" fill="#F9A8D4" />
  <circle cx="320" cy="80" r="15" fill="#F9A8D4" />
  <circle cx="360" cy="40" r="15" fill="#F9A8D4" />
  <circle cx="360" cy="80" r="15" fill="#F9A8D4" />
  
  <!-- Main Content -->
  <rect x="20" y="140" width="360" height="440" fill="#ffffff" />
  
  <!-- About Me Section -->
  <rect x="40" y="160" width="120" height="20" fill="#EC4899" rx="10" />
  <rect x="40" y="190" width="320" height="8" fill="#64748b" rx="2" />
  <rect x="40" y="205" width="300" height="8" fill="#64748b" rx="2" />
  <rect x="40" y="220" width="310" height="8" fill="#64748b" rx="2" />
  
  <!-- Experience Section -->
  <rect x="40" y="260" width="150" height="20" fill="#EC4899" rx="10" />
  
  <!-- Job 1 with creative layout -->
  <rect x="40" y="290" width="80" height="80" fill="#FDF2F8" rx="5" />
  <rect x="50" y="300" width="60" height="10" fill="#EC4899" rx="2" />
  <rect x="50" y="320" width="50" height="8" fill="#64748b" rx="2" />
  <rect x="50" y="335" width="55" height="8" fill="#64748b" rx="2" />
  <rect x="50" y="350" width="40" height="8" fill="#64748b" rx="2" />
  
  <rect x="130" y="290" width="230" height="80" fill="#ffffff" stroke="#FDF2F8" stroke-width="2" rx="5" />
  <rect x="140" y="300" width="120" height="10" fill="#64748b" rx="2" />
  <rect x="140" y="320" width="210" height="8" fill="#94a3b8" rx="2" />
  <rect x="140" y="335" width="200" height="8" fill="#94a3b8" rx="2" />
  <rect x="140" y="350" width="190" height="8" fill="#94a3b8" rx="2" />
  
  <!-- Job 2 with creative layout -->
  <rect x="40" y="380" width="80" height="80" fill="#FDF2F8" rx="5" />
  <rect x="50" y="390" width="60" height="10" fill="#EC4899" rx="2" />
  <rect x="50" y="410" width="50" height="8" fill="#64748b" rx="2" />
  <rect x="50" y="425" width="55" height="8" fill="#64748b" rx="2" />
  <rect x="50" y="440" width="40" height="8" fill="#64748b" rx="2" />
  
  <rect x="130" y="380" width="230" height="80" fill="#ffffff" stroke="#FDF2F8" stroke-width="2" rx="5" />
  <rect x="140" y="390" width="120" height="10" fill="#64748b" rx="2" />
  <rect x="140" y="410" width="210" height="8" fill="#94a3b8" rx="2" />
  <rect x="140" y="425" width="200" height="8" fill="#94a3b8" rx="2" />
  <rect x="140" y="440" width="190" height="8" fill="#94a3b8" rx="2" />
  
  <!-- Skills Section with creative bubbles -->
  <rect x="40" y="480" width="80" height="20" fill="#EC4899" rx="10" />
  
  <circle cx="70" cy="520" r="20" fill="#FDF2F8" stroke="#EC4899" stroke-width="2" />
  <circle cx="120" cy="520" r="20" fill="#FDF2F8" stroke="#EC4899" stroke-width="2" />
  <circle cx="170" cy="520" r="20" fill="#FDF2F8" stroke="#EC4899" stroke-width="2" />
  <circle cx="220" cy="520" r="20" fill="#FDF2F8" stroke="#EC4899" stroke-width="2" />
  <circle cx="270" cy="520" r="20" fill="#FDF2F8" stroke="#EC4899" stroke-width="2" />
  <circle cx="320" cy="520" r="20" fill="#FDF2F8" stroke="#EC4899" stroke-width="2" />
  
  <!-- Decorative Elements -->
  <circle cx="380" cy="580" r="15" fill="#EC4899" opacity="0.5" />
  <circle cx="20" cy="580" r="15" fill="#EC4899" opacity="0.5" />
</svg>
