<?xml version="1.0" encoding="UTF-8" standalone="no"?>
<svg width="400" height="600" xmlns="http://www.w3.org/2000/svg">
  <!-- Background -->
  <rect width="400" height="600" fill="#ffffff" />
  
  <!-- Header -->
  <rect x="20" y="20" width="360" height="60" fill="#ffffff" />
  <rect x="30" y="30" width="180" height="20" fill="#10B981" rx="2" />
  <rect x="30" y="60" width="340" height="1" fill="#e2e8f0" />
  
  <!-- Contact Info -->
  <rect x="30" y="70" width="340" height="20" fill="#ffffff" />
  <rect x="30" y="80" width="60" height="8" fill="#6EE7B7" rx="2" />
  <rect x="100" y="80" width="60" height="8" fill="#6EE7B7" rx="2" />
  <rect x="170" y="80" width="60" height="8" fill="#6EE7B7" rx="2" />
  <rect x="240" y="80" width="60" height="8" fill="#6EE7B7" rx="2" />
  
  <!-- Summary -->
  <rect x="30" y="110" width="340" height="40" fill="#ffffff" />
  <rect x="30" y="120" width="340" height="8" fill="#64748b" rx="2" />
  <rect x="30" y="135" width="300" height="8" fill="#64748b" rx="2" />
  
  <!-- Work Experience -->
  <rect x="30" y="170" width="340" height="20" fill="#ffffff" />
  <rect x="30" y="170" width="120" height="15" fill="#10B981" rx="2" />
  <rect x="30" y="195" width="340" height="1" fill="#e2e8f0" />
  
  <rect x="30" y="205" width="340" height="80" fill="#ffffff" />
  <rect x="30" y="215" width="200" height="10" fill="#64748b" rx="2" />
  <rect x="30" y="235" width="180" height="8" fill="#94a3b8" rx="2" />
  <rect x="30" y="255" width="300" height="8" fill="#94a3b8" rx="2" />
  <rect x="30" y="270" width="280" height="8" fill="#94a3b8" rx="2" />
  
  <rect x="30" y="295" width="340" height="80" fill="#ffffff" />
  <rect x="30" y="305" width="200" height="10" fill="#64748b" rx="2" />
  <rect x="30" y="325" width="180" height="8" fill="#94a3b8" rx="2" />
  <rect x="30" y="345" width="300" height="8" fill="#94a3b8" rx="2" />
  <rect x="30" y="360" width="280" height="8" fill="#94a3b8" rx="2" />
  
  <!-- Education -->
  <rect x="30" y="390" width="340" height="20" fill="#ffffff" />
  <rect x="30" y="390" width="100" height="15" fill="#10B981" rx="2" />
  <rect x="30" y="415" width="340" height="1" fill="#e2e8f0" />
  
  <rect x="30" y="425" width="340" height="60" fill="#ffffff" />
  <rect x="30" y="435" width="200" height="10" fill="#64748b" rx="2" />
  <rect x="30" y="455" width="180" height="8" fill="#94a3b8" rx="2" />
  <rect x="30" y="475" width="150" height="8" fill="#94a3b8" rx="2" />
  
  <!-- Skills -->
  <rect x="30" y="500" width="340" height="20" fill="#ffffff" />
  <rect x="30" y="500" width="70" height="15" fill="#10B981" rx="2" />
  <rect x="30" y="525" width="340" height="1" fill="#e2e8f0" />
  
  <rect x="30" y="535" width="340" height="30" fill="#ffffff" />
  <rect x="30" y="545" width="60" height="20" fill="#f0fdfa" rx="10" stroke="#10B981" stroke-width="1" />
  <rect x="100" y="545" width="70" height="20" fill="#f0fdfa" rx="10" stroke="#10B981" stroke-width="1" />
  <rect x="180" y="545" width="60" height="20" fill="#f0fdfa" rx="10" stroke="#10B981" stroke-width="1" />
  <rect x="250" y="545" width="80" height="20" fill="#f0fdfa" rx="10" stroke="#10B981" stroke-width="1" />
</svg>
