<?xml version="1.0" encoding="UTF-8" standalone="no"?>
<svg width="400" height="600" xmlns="http://www.w3.org/2000/svg">
  <!-- Background -->
  <rect width="400" height="600" fill="#ffffff" />
  
  <!-- Header -->
  <rect x="20" y="20" width="360" height="80" fill="#f0f4f8" rx="4" />
  <rect x="30" y="30" width="200" height="20" fill="#3B82F6" rx="2" />
  <rect x="30" y="60" width="150" height="10" fill="#93C5FD" rx="2" />
  <rect x="30" y="80" width="180" height="10" fill="#93C5FD" rx="2" />
  <rect x="240" y="30" width="130" height="50" fill="#f0f4f8" stroke="#e2e8f0" stroke-width="1" rx="2" />
  
  <!-- Work Experience -->
  <rect x="20" y="120" width="230" height="200" fill="#f9fafb" rx="4" />
  <rect x="30" y="130" width="120" height="15" fill="#3B82F6" rx="2" />
  <rect x="30" y="155" width="210" height="10" fill="#64748b" rx="2" />
  <rect x="30" y="175" width="180" height="10" fill="#64748b" rx="2" />
  <rect x="30" y="195" width="200" height="10" fill="#64748b" rx="2" />
  <rect x="30" y="215" width="190" height="10" fill="#64748b" rx="2" />
  <rect x="30" y="245" width="210" height="10" fill="#64748b" rx="2" />
  <rect x="30" y="265" width="180" height="10" fill="#64748b" rx="2" />
  <rect x="30" y="285" width="200" height="10" fill="#64748b" rx="2" />
  
  <!-- Education -->
  <rect x="20" y="340" width="230" height="100" fill="#f9fafb" rx="4" />
  <rect x="30" y="350" width="100" height="15" fill="#3B82F6" rx="2" />
  <rect x="30" y="375" width="210" height="10" fill="#64748b" rx="2" />
  <rect x="30" y="395" width="180" height="10" fill="#64748b" rx="2" />
  <rect x="30" y="415" width="200" height="10" fill="#64748b" rx="2" />
  
  <!-- Skills -->
  <rect x="270" y="120" width="110" height="160" fill="#f0f4f8" rx="4" />
  <rect x="280" y="130" width="70" height="15" fill="#3B82F6" rx="2" />
  <rect x="280" y="155" width="90" height="20" fill="#e6f0ff" rx="10" />
  <rect x="280" y="185" width="70" height="20" fill="#e6f0ff" rx="10" />
  <rect x="280" y="215" width="80" height="20" fill="#e6f0ff" rx="10" />
  <rect x="280" y="245" width="60" height="20" fill="#e6f0ff" rx="10" />
  
  <!-- Projects -->
  <rect x="270" y="300" width="110" height="140" fill="#f9fafb" rx="4" />
  <rect x="280" y="310" width="80" height="15" fill="#3B82F6" rx="2" />
  <rect x="280" y="335" width="90" height="10" fill="#64748b" rx="2" />
  <rect x="280" y="355" width="80" height="10" fill="#64748b" rx="2" />
  <rect x="280" y="375" width="90" height="10" fill="#64748b" rx="2" />
  <rect x="280" y="395" width="70" height="10" fill="#64748b" rx="2" />
  
  <!-- Footer -->
  <rect x="20" y="460" width="360" height="120" fill="#f9fafb" rx="4" />
  <rect x="30" y="470" width="340" height="100" fill="#f9fafb" stroke="#e2e8f0" stroke-width="1" rx="2" />
</svg>
